STARTFONT 2.1
COMMENT generated by bdf-starter
FONT FontName
SIZE 31 75 75
FONTBOUNDINGBOX 24 32 0 0

STARTPROPERTIES 15
_GBDFED_INFO "Edited with gbdfed 1.6."
PIXEL_SIZE 32
POINT_SIZE 317
RESOLUTION_X 75
RESOLUTION_Y 75
AVERAGE_WIDTH 70
CHARSET_REGISTRY "ISO10646"
CHARSET_ENCODING "1"
CAP_HEIGHT 32
X_HEIGHT 24
WEIGHT 10
QUAD_WIDTH 7
DEFAULT_CHAR 0
FONT_DESCENT 0
FONT_ASCENT 32
ENDPROPERTIES

CHARS 12

STARTCHAR char32
ENCODING 32
SWIDTH 18 0
DWIDTH 6 0
BBX 6 32 0 0
BITMAP
00
00
00
00
00
00
00
00
00
00
00
00
00
00
00
00
00
00
00
00
00
00
00
00
00
00
00
00
00
00
00
00
ENDCHAR

STARTCHAR char48
ENCODING 48
SWIDTH 743 0
DWIDTH 24 0
BBX 24 32 0 0
BITMAP
01FFF6
03FFF7
007FE7
07000F
07000E
07000E
07000E
07000E
0F001E
0E001C
0E001C
0E001C
0E001C
1C001C
000000
1C0018
1C0038
1C0038
3C0078
380070
380070
380070
380070
7800F0
7000E0
7000E0
7000E0
7000E0
C001E0
1FFDC0
FFFDC0
7FFD80
ENDCHAR
STARTCHAR char49
ENCODING 49
SWIDTH 743 0
DWIDTH 24 0
BBX 9 32 15 0
BITMAP
0300
0380
0380
0780
0700
0700
0700
0700
0F00
0E00
0E00
0E00
0E00
0E00
0000
0C00
1C00
1C00
3C00
3800
3800
3800
3800
7800
7000
7000
7000
7000
F000
E000
E000
C000
ENDCHAR
STARTCHAR char50
ENCODING 50
SWIDTH 743 0
DWIDTH 24 0
BBX 24 32 0 0
BITMAP
01FFF6
03FFF7
007FE7
00000F
00000E
00000E
00000E
00000E
00001E
00001C
00001C
00001C
00001C
00FFDC
01FFC0
1DFF80
1C0000
1C0000
3C0000
380000
380000
380000
380000
780000
700000
700000
700000
700000
C00000
1FFC00
FFFC00
7FFC00
ENDCHAR
STARTCHAR char51
ENCODING 51
SWIDTH 743 0
DWIDTH 24 0
BBX 24 32 0 0
BITMAP
01FFF6
03FFF7
007FE7
00000F
00000E
00000E
00000E
00000E
00001E
00001C
00001C
00001C
00001C
00FFDC
01FFC0
01FF98
000038
000038
000078
000070
000070
000070
000070
0000F0
0000E0
0000E0
0000E0
0000E0
0001E0
1FFDC0
FFFDC0
7FFD80
ENDCHAR
STARTCHAR char52
ENCODING 52
SWIDTH 743 0
DWIDTH 24 0
BBX 21 32 3 0
BITMAP
000030
000038
000038
380078
380070
380070
380070
380070
7800F0
7000E0
7000E0
7000E0
7000E0
E7FEE0
0FFE00
0FFCC0
0001C0
0001C0
0003C0
000380
000380
000380
000380
000780
000700
000700
000700
000700
000F00
000E00
000E00
000C00
ENDCHAR
STARTCHAR char53
ENCODING 53
SWIDTH 743 0
DWIDTH 24 0
BBX 21 32 0 0
BITMAP
01FFF0
03FFF0
007FE0
070000
070000
070000
070000
070000
0F0000
0E0000
0E0000
0E0000
0E0000
1CFFC0
01FFC0
01FF98
000038
000038
000078
000070
000070
000070
000070
0000F0
0000E0
0000E0
0000E0
0000E0
0001E0
1FFDC0
FFFDC0
7FFD80
ENDCHAR
STARTCHAR char54
ENCODING 54
SWIDTH 743 0
DWIDTH 24 0
BBX 21 32 0 0
BITMAP
01FFF0
03FFF0
007FE0
070000
070000
070000
070000
070000
0F0000
0E0000
0E0000
0E0000
0E0000
1CFFC0
01FFC0
1DFF98
1C0038
1C0038
3C0078
380070
380070
380070
380070
7800F0
7000E0
7000E0
7000E0
7000E0
C001E0
1FFDC0
FFFDC0
7FFD80
ENDCHAR
STARTCHAR char55
ENCODING 55
SWIDTH 743 0
DWIDTH 24 0
BBX 21 32 3 0
BITMAP
0FFFB0
1FFFB8
03FF38
380078
380070
380070
380070
380070
7800F0
7000E0
7000E0
7000E0
7000E0
E000E0
000000
0000C0
0001C0
0001C0
0003C0
000380
000380
000380
000380
000780
000700
000700
000700
000700
000F00
000E00
000E00
000C00
ENDCHAR
STARTCHAR char56
ENCODING 56
SWIDTH 743 0
DWIDTH 24 0
BBX 24 32 0 0
BITMAP
01FFF6
03FFF7
007FE7
07000F
07000E
07000E
07000E
07000E
0F001E
0E001C
0E001C
0E001C
0E001C
1CFFDC
01FFC0
1DFF98
1C0038
1C0038
3C0078
380070
380070
380070
380070
7800F0
7000E0
7000E0
7000E0
7000E0
C001E0
1FFDC0
FFFDC0
7FFD80
ENDCHAR
STARTCHAR char57
ENCODING 57
SWIDTH 743 0
DWIDTH 24 0
BBX 24 32 0 0
BITMAP
01FFF6
03FFF7
007FE7
07000F
07000E
07000E
07000E
07000E
0F001E
0E001C
0E001C
0E001C
0E001C
1CFFDC
01FFC0
01FF98
000038
000038
000078
000070
000070
000070
000070
0000F0
0000E0
0000E0
0000E0
0000E0
0001E0
1FFDC0
FFFDC0
7FFD80
ENDCHAR
STARTCHAR char58
ENCODING 58
SWIDTH 216 0
DWIDTH 7 0
BBX 6 14 0 9
BITMAP
1C
3C
3C
38
00
00
00
00
00
00
70
F0
F0
E0
ENDCHAR
ENDFONT
