STARTFONT 2.1
COMMENT generated by bdf-starter
FONT FontName
SIZE 31 75 75
FONTBOUNDINGBOX 21 32 0 0
STARTPROPERTIES 15
_GBDFED_INFO "Edited with gbdfed 1.6."
PIXEL_SIZE 32
POINT_SIZE 317
RESOLUTION_X 75
RESOLUTION_Y 75
AVERAGE_WIDTH 70
CHARSET_REGISTRY "ISO10646"
CHARSET_ENCODING "1"
CAP_HEIGHT 32
X_HEIGHT 24
WEIGHT 10
QUAD_WIDTH 7
DEFAULT_CHAR 0
FONT_DESCENT 0
FONT_ASCENT 32
ENDPROPERTIES
CHARS 12
STARTCHAR char32
ENCODING 32
SWIDTH 185 0
DWIDTH 6 0
BBX 0 0 0 0
BITMAP
ENDCHAR
STARTCHAR char48
ENCODING 48
SWIDTH 681 0
DWIDTH 22 0
BBX 20 32 1 0
BITMAP
01FF60
03FF70
007E70
0700F0
0700E0
0700E0
0700E0
0700E0
0F01E0
0E01C0
0E01C0
0E01C0
0E01C0
1C01C0
000000
1C0180
1C0380
1C0380
3C0780
380700
380700
380700
380700
780F00
700E00
700E00
700E00
700E00
C01E00
1FDC00
FFDC00
7FD800
ENDCHAR
STARTCHAR char49
ENCODING 49
SWIDTH 681 0
DWIDTH 22 0
BBX 9 32 12 0
BITMAP
0300
0380
0380
0780
0700
0700
0700
0700
0F00
0E00
0E00
0E00
0E00
0E00
0000
0C00
1C00
1C00
3C00
3800
3800
3800
3800
7800
7000
7000
7000
7000
F000
E000
E000
C000
ENDCHAR
STARTCHAR char50
ENCODING 50
SWIDTH 681 0
DWIDTH 22 0
BBX 20 32 1 0
BITMAP
01FF60
03FF70
007E70
0000F0
0000E0
0000E0
0000E0
0000E0
0001E0
0001C0
0001C0
0001C0
0001C0
00FDC0
01FC00
1DF800
1C0000
1C0000
3C0000
380000
380000
380000
380000
780000
700000
700000
700000
700000
C00000
1FC000
FFC000
7FC000
ENDCHAR
STARTCHAR char51
ENCODING 51
SWIDTH 681 0
DWIDTH 22 0
BBX 20 32 1 0
BITMAP
01FF60
03FF70
007E70
0000F0
0000E0
0000E0
0000E0
0000E0
0001E0
0001C0
0001C0
0001C0
0001C0
00FDC0
01FC00
01F980
000380
000380
000780
000700
000700
000700
000700
000F00
000E00
000E00
000E00
000E00
001E00
1FDC00
FFDC00
7FD800
ENDCHAR
STARTCHAR char52
ENCODING 52
SWIDTH 681 0
DWIDTH 22 0
BBX 17 32 4 0
BITMAP
000300
000380
000380
380780
380700
380700
380700
380700
780F00
700E00
700E00
700E00
700E00
E7EE00
0FE000
0FDC00
001C00
001C00
003C00
003800
003800
003800
003800
007800
007000
007000
007000
007000
00F000
00E000
00E000
00C000
ENDCHAR
STARTCHAR char53
ENCODING 53
SWIDTH 681 0
DWIDTH 22 0
BBX 17 32 1 0
BITMAP
01FF00
03FF00
007E00
070000
070000
070000
070000
070000
0F0000
0E0000
0E0000
0E0000
0E0000
1CFC00
01FC00
01F980
000380
000380
000780
000700
000700
000700
000700
000F00
000E00
000E00
000E00
000E00
001E00
1FDC00
FFDC00
7FD800
ENDCHAR
STARTCHAR char54
ENCODING 54
SWIDTH 681 0
DWIDTH 22 0
BBX 17 32 1 0
BITMAP
01FF00
03FF00
007E00
070000
070000
070000
070000
070000
0F0000
0E0000
0E0000
0E0000
0E0000
1CFC00
01FC00
1DF980
1C0380
1C0380
3C0780
380700
380700
380700
380700
780F00
700E00
700E00
700E00
700E00
C01E00
1FDC00
FFDC00
7FD800
ENDCHAR
STARTCHAR char55
ENCODING 55
SWIDTH 681 0
DWIDTH 22 0
BBX 17 32 4 0
BITMAP
0FFB00
1FFB80
03F380
380780
380700
380700
380700
380700
780F00
700E00
700E00
700E00
700E00
E00E00
000000
000C00
001C00
001C00
003C00
003800
003800
003800
003800
007800
007000
007000
007000
007000
00F000
00E000
00E000
00C000
ENDCHAR
STARTCHAR char56
ENCODING 56
SWIDTH 681 0
DWIDTH 22 0
BBX 20 32 1 0
BITMAP
01FF60
03FF70
007E70
0700F0
0700E0
0700E0
0700E0
0700E0
0F01E0
0E01C0
0E01C0
0E01C0
0E01C0
1CFDC0
01FC00
1DF980
1C0380
1C0380
3C0780
380700
380700
380700
380700
780F00
700E00
700E00
700E00
700E00
C01E00
1FDC00
FFDC00
7FD800
ENDCHAR
STARTCHAR char57
ENCODING 57
SWIDTH 681 0
DWIDTH 22 0
BBX 20 32 1 0
BITMAP
01FF60
03FF70
007E70
0700F0
0700E0
0700E0
0700E0
0700E0
0F01E0
0E01C0
0E01C0
0E01C0
0E01C0
1CFDC0
01FC00
01F980
000380
000380
000780
000700
000700
000700
000700
000F00
000E00
000E00
000E00
000E00
001E00
1FDC00
FFDC00
7FD800
ENDCHAR
STARTCHAR char58
ENCODING 58
SWIDTH 185 0
DWIDTH 6 0
BBX 6 14 0 9
BITMAP
1C
3C
3C
38
00
00
00
00
00
00
70
F0
F0
E0
ENDCHAR
ENDFONT
